Lexend Deca Semibold.ufo
<glyph name="exclam" format="2">
  <advance width="279"/>
  <unicode hex="0021"/>
  <note>
exclam
</note>
  <outline>
    <contour>
      <point x="180.33333333333331" y="249.33333333333334" type="qcurve"/>
      <point x="97.0" y="249.33333333333334" type="line"/>
      <point x="85.0" y="341.6666666666667"/>
      <point x="67.0" y="545.3333333333334"/>
      <point x="67.0" y="631.6666666666666" type="qcurve"/>
      <point x="67.0" y="706.6666666666666" type="line"/>
      <point x="210.33333333333331" y="706.6666666666666" type="line"/>
      <point x="210.33333333333331" y="631.6666666666666" type="line" smooth="yes"/>
      <point x="210.33333333333331" y="540.3333333333334"/>
      <point x="192.33333333333331" y="336.6666666666667"/>
    </contour>
    <component base="period" xOffset="14.666666666666666"/>
  </outline>
</glyph>
<glyph name="ampersand" format="2">
  <advance width="746"/>
  <unicode hex="0026"/>
  <note>
ampersand
</note>
  <outline>
    <contour>
      <point x="309.6666666666667" y="-10.0" type="qcurve" smooth="yes"/>
      <point x="196.33333333333334" y="-10.0"/>
      <point x="41.66666666666667" y="122.0"/>
      <point x="41.66666666666667" y="215.66666666666666" type="qcurve" smooth="yes"/>
      <point x="41.66666666666667" y="291.0"/>
      <point x="127.33333333333333" y="407.3333333333333"/>
      <point x="211.0" y="438.0" type="qcurve"/>
      <point x="295.6666666666667" y="349.3333333333333" type="line"/>
      <point x="236.66666666666666" y="336.3333333333333"/>
      <point x="177.66666666666666" y="276.6666666666667"/>
      <point x="177.66666666666666" y="228.66666666666666" type="qcurve" smooth="yes"/>
      <point x="177.66666666666666" y="172.66666666666666"/>
      <point x="257.0" y="105.0"/>
      <point x="327.6666666666667" y="105.0" type="qcurve" smooth="yes"/>
      <point x="411.0" y="105.0"/>
      <point x="528.3333333333334" y="233.66666666666666"/>
      <point x="541.3333333333334" y="339.0" type="qcurve"/>
      <point x="666.6666666666666" y="339.0" type="line"/>
      <point x="645.0" y="182.66666666666666"/>
      <point x="452.3333333333333" y="-10.0"/>
    </contour>
    <contour>
      <point x="740.6666666666666" y="0.0" type="line"/>
      <point x="569.3333333333334" y="0.0" type="line"/>
      <point x="501.6666666666667" y="71.33333333333333" type="line"/>
      <point x="459.6666666666667" y="110.66666666666667" type="line"/>
      <point x="279.0" y="306.6666666666667" type="line"/>
      <point x="207.0" y="388.6666666666667"/>
      <point x="158.0" y="486.6666666666667"/>
      <point x="158.0" y="529.6666666666666" type="qcurve" smooth="yes"/>
      <point x="158.0" y="609.0"/>
      <point x="279.3333333333333" y="713.3333333333334"/>
      <point x="375.0" y="713.3333333333334" type="qcurve" smooth="yes"/>
      <point x="446.6666666666667" y="713.3333333333334"/>
      <point x="561.6666666666666" y="640.3333333333334"/>
      <point x="581.3333333333334" y="581.3333333333334" type="qcurve"/>
      <point x="475.0" y="516.6666666666666" type="line"/>
      <point x="457.3333333333333" y="559.6666666666666"/>
      <point x="411.3333333333333" y="594.6666666666666"/>
      <point x="378.0" y="594.6666666666666" type="qcurve" smooth="yes"/>
      <point x="340.3333333333333" y="594.6666666666666"/>
      <point x="298.6666666666667" y="559.0"/>
      <point x="298.6666666666667" y="525.3333333333334" type="qcurve" smooth="yes"/>
      <point x="298.6666666666667" y="491.6666666666667"/>
      <point x="378.0" y="386.6666666666667"/>
      <point x="434.6666666666667" y="325.3333333333333" type="qcurve" smooth="yes"/>
      <point x="543.0" y="206.0" type="line"/>
      <point x="588.6666666666666" y="163.33333333333334" type="line"/>
    </contour>
  </outline>
</glyph>
<glyph name="quotesingle" format="2">
  <advance width="232"/>
  <unicode hex="0027"/>
  <note>
quotesingle
</note>
  <outline>
    <contour>
      <point x="41.333333333333336" y="438.6666666666667" type="line"/>
      <point x="62.666666666666664" y="700.0" type="line"/>
      <point x="207.33333333333334" y="700.0" type="line"/>
      <point x="124.66666666666666" y="438.6666666666667" type="line"/>
    </contour>
  </outline>
</glyph>
<glyph name="plus" format="2">
  <advance width="594"/>
  <unicode hex="002B"/>
  <note>
plus
</note>
  <outline>
    <contour>
      <point x="551.0" y="223.66666666666666" type="line"/>
      <point x="43.333333333333336" y="223.66666666666666" type="line"/>
      <point x="43.333333333333336" y="340.3333333333333" type="line"/>
      <point x="551.0" y="340.3333333333333" type="line"/>
    </contour>
    <contour>
      <point x="359.0" y="40.333333333333336" type="line"/>
      <point x="234.0" y="40.333333333333336" type="line"/>
      <point x="234.0" y="526.6666666666666" type="line"/>
      <point x="359.0" y="526.6666666666666" type="line"/>
    </contour>
  </outline>
</glyph>
<glyph name="zero" format="2">
  <advance width="656"/>
  <unicode hex="0030"/>
  <outline>
    <contour>
      <point x="609.0" y="350.0" type="qcurve"/>
      <point x="609.0" y="181.66666666666666"/>
      <point x="460.3333333333333" y="-10.0"/>
      <point x="327.6666666666667" y="-10.0" type="qcurve"/>
      <point x="195.0" y="-10.0"/>
      <point x="47.333333333333336" y="181.66666666666666"/>
      <point x="47.333333333333336" y="350.0" type="qcurve"/>
      <point x="47.333333333333336" y="518.3333333333334"/>
      <point x="195.0" y="710.0"/>
      <point x="327.6666666666667" y="710.0" type="qcurve"/>
      <point x="460.3333333333333" y="710.0"/>
      <point x="609.0" y="518.3333333333334"/>
    </contour>
    <contour>
      <point x="184.66666666666666" y="350.0" type="qcurve"/>
      <point x="184.66666666666666" y="237.33333333333334"/>
      <point x="259.3333333333333" y="114.66666666666666"/>
      <point x="327.6666666666667" y="114.66666666666666" type="qcurve"/>
      <point x="396.0" y="114.66666666666666"/>
      <point x="470.6666666666667" y="237.33333333333334"/>
      <point x="470.6666666666667" y="350.0" type="qcurve"/>
      <point x="470.6666666666667" y="464.3333333333333"/>
      <point x="396.0" y="588.6666666666666"/>
      <point x="327.6666666666667" y="588.6666666666666" type="qcurve"/>
      <point x="259.3333333333333" y="588.6666666666666"/>
      <point x="184.66666666666666" y="464.3333333333333"/>
    </contour>
  </outline>
</glyph>
<glyph name="two" format="2">
  <advance width="548"/>
  <unicode hex="0032"/>
  <outline>
    <contour>
      <point x="182.0" y="130.66666666666666" type="line"/>
      <point x="529.3333333333334" y="130.66666666666666" type="line"/>
      <point x="529.3333333333334" y="0.0" type="line"/>
      <point x="73.33333333333334" y="0.0" type="line"/>
      <point x="40.0" y="82.0" type="line"/>
      <point x="245.0" y="312.6666666666667" type="line" smooth="yes"/>
      <point x="300.3333333333333" y="374.6666666666667"/>
      <point x="359.3333333333333" y="464.0"/>
      <point x="359.3333333333333" y="498.6666666666667" type="qcurve"/>
      <point x="359.3333333333333" y="535.6666666666666"/>
      <point x="314.6666666666667" y="580.0"/>
      <point x="273.3333333333333" y="580.0" type="qcurve"/>
      <point x="235.33333333333334" y="580.0"/>
      <point x="166.0" y="517.6666666666666"/>
      <point x="144.33333333333334" y="460.6666666666667" type="qcurve"/>
      <point x="36.66666666666667" y="522.0" type="line"/>
      <point x="65.0" y="609.0"/>
      <point x="201.33333333333334" y="713.6666666666666"/>
      <point x="288.6666666666667" y="713.3333333333334" type="qcurve" smooth="yes"/>
      <point x="380.0" y="713.0"/>
      <point x="502.0" y="603.0"/>
      <point x="502.0" y="514.3333333333334" type="qcurve" smooth="yes"/>
      <point x="502.0" y="459.0"/>
      <point x="439.3333333333333" y="330.0"/>
      <point x="364.3333333333333" y="247.0" type="qcurve"/>
      <point x="205.33333333333334" y="74.0" type="line"/>
    </contour>
  </outline>
</glyph>
<glyph name="four" format="2">
  <advance width="639"/>
  <unicode hex="0034"/>
  <outline>
    <contour>
      <point x="501.0" y="0.0" type="line"/>
      <point x="363.6666666666667" y="0.0" type="line"/>
      <point x="363.6666666666667" y="567.3333333333334" type="line"/>
      <point x="415.3333333333333" y="561.3333333333334" type="line"/>
      <point x="174.0" y="263.6666666666667" type="line"/>
      <point x="161.33333333333334" y="292.6666666666667" type="line"/>
      <point x="606.3333333333334" y="292.6666666666667" type="line"/>
      <point x="606.3333333333334" y="170.0" type="line"/>
      <point x="86.66666666666667" y="170.0" type="line"/>
      <point x="30.0" y="277.3333333333333" type="line"/>
      <point x="381.3333333333333" y="703.3333333333334" type="line"/>
      <point x="501.0" y="703.3333333333334" type="line"/>
    </contour>
  </outline>
</glyph>
<glyph name="nine" format="2">
  <advance width="566"/>
  <unicode hex="0039"/>
  <outline>
    <contour>
      <point x="30.0" y="460.0" type="qcurve" smooth="yes"/>
      <point x="30.0" y="568.3333333333334"/>
      <point x="175.57323232323233" y="714.6666666666666"/>
      <point x="284.0" y="714.6666666666666" type="qcurve"/>
      <point x="388.04071246819336" y="714.6666666666666"/>
      <point x="536.0" y="574.3333333333334"/>
      <point x="536.0" y="476.0" type="qcurve" smooth="yes"/>
      <point x="536.0" y="413.6666666666667"/>
      <point x="488.3333333333333" y="276.3333333333333"/>
      <point x="438.6666666666667" y="174.0" type="qcurve"/>
      <point x="352.3333333333333" y="0.0" type="line"/>
      <point x="216.33333333333334" y="0.0" type="line"/>
      <point x="212.33333333333334" y="10.0" type="line"/>
      <point x="427.0" y="452.0" type="line"/>
      <point x="445.0" y="382.3333333333333" type="line"/>
      <point x="419.33155122717795" y="316.64655432577047"/>
      <point x="299.9657320872274" y="236.33333333333334"/>
      <point x="241.0" y="236.33333333333334" type="qcurve"/>
      <point x="155.0" y="236.33333333333334"/>
      <point x="30.0" y="369.6666666666667"/>
    </contour>
    <contour>
      <point x="393.0" y="471.6666666666667" type="qcurve" smooth="yes"/>
      <point x="393.0" y="523.3333333333334"/>
      <point x="327.40506329113924" y="592.0"/>
      <point x="275.6666666666667" y="592.0" type="qcurve"/>
      <point x="227.39700374531836" y="592.0"/>
      <point x="164.33333333333334" y="525.6666666666666"/>
      <point x="164.33333333333334" y="472.3333333333333" type="qcurve" smooth="yes"/>
      <point x="164.33333333333334" y="426.6666666666667"/>
      <point x="228.69288389513108" y="356.3333333333333"/>
      <point x="274.3333333333333" y="356.3333333333333" type="qcurve" smooth="yes"/>
      <point x="326.0717299578059" y="356.3333333333333"/>
      <point x="393.0" y="423.3333333333333"/>
    </contour>
  </outline>
</glyph>
<glyph name="semicolon" format="2">
  <advance width="273"/>
  <unicode hex="003B"/>
  <note>
semicolon
</note>
  <outline>
    <contour>
      <point x="221.0" y="455.3333333333333" type="qcurve" smooth="yes"/>
      <point x="221.0" y="418.6666666666667"/>
      <point x="177.33333333333334" y="372.0"/>
      <point x="142.0" y="372.0" type="qcurve" smooth="yes"/>
      <point x="104.33333333333333" y="372.0"/>
      <point x="63.0" y="415.3333333333333"/>
      <point x="63.0" y="455.3333333333333" type="qcurve" smooth="yes"/>
      <point x="63.0" y="492.0"/>
      <point x="106.66666666666667" y="538.6666666666666"/>
      <point x="142.0" y="538.6666666666666" type="qcurve" smooth="yes"/>
      <point x="179.66666666666666" y="538.6666666666666"/>
      <point x="221.0" y="495.3333333333333"/>
    </contour>
    <component base="comma" xOffset="3.333333333333332"/>
  </outline>
</glyph>
<glyph name="F" format="2">
  <advance width="611"/>
  <unicode hex="0046"/>
  <note>
F
</note>
  <outline>
    <contour>
      <point x="92.0" y="0.0" type="line"/>
      <point x="92.0" y="700.0" type="line"/>
      <point x="236.0" y="700.0" type="line"/>
      <point x="236.0" y="0.0" type="line"/>
    </contour>
    <contour>
      <point x="520.0" y="280.6666666666667" type="line"/>
      <point x="158.33333333333334" y="280.6666666666667" type="line"/>
      <point x="158.33333333333334" y="406.6666666666667" type="line"/>
      <point x="520.0" y="406.6666666666667" type="line"/>
    </contour>
    <contour>
      <point x="562.3333333333334" y="569.3333333333334" type="line"/>
      <point x="158.33333333333334" y="569.3333333333334" type="line"/>
      <point x="158.33333333333334" y="700.0" type="line"/>
      <point x="562.3333333333334" y="700.0" type="line"/>
    </contour>
  </outline>
</glyph>
<glyph name="H" format="2">
  <advance width="772"/>
  <unicode hex="0048"/>
  <note>
H
</note>
  <anchor x="381.3333333333333" y="0" name="bottom"/>
  <anchor x="381.3333333333333" y="350.0" name="center"/>
  <anchor x="381.3333333333333" y="700.0" name="top"/>
  <anchor x="41.333333333333336" y="700.0" name="topleft"/>
  <outline>
    <contour>
      <point x="92.0" y="700.0" type="line"/>
      <point x="236.0" y="700.0" type="line"/>
      <point x="236.0" y="0.0" type="line"/>
      <point x="92.0" y="0.0" type="line"/>
    </contour>
    <contour>
      <point x="535.6666666666666" y="700.0" type="line"/>
      <point x="679.6666666666666" y="700.0" type="line"/>
      <point x="679.6666666666666" y="0.0" type="line"/>
      <point x="535.6666666666666" y="0.0" type="line"/>
    </contour>
    <contour>
      <point x="150.33333333333334" y="283.0" type="line"/>
      <point x="150.66666666666666" y="415.0" type="line"/>
      <point x="608.3333333333334" y="415.0" type="line"/>
      <point x="608.3333333333334" y="283.0" type="line"/>
    </contour>
  </outline>
</glyph>
<glyph name="I" format="2">
  <advance width="519"/>
  <unicode hex="0049"/>
  <note>
I
</note>
  <anchor x="259.0" y="0" name="bottom"/>
  <anchor x="459.3333333333333" y="6.666666666666667" name="ogonek"/>
  <anchor x="259.0" y="700.0" name="top"/>
  <anchor x="125.66666666666667" y="700.0" name="topleft"/>
  <outline>
    <contour>
      <point x="331.6666666666667" y="700.0" type="qcurve"/>
      <point x="331.6666666666667" y="0.0" type="line"/>
      <point x="187.66666666666666" y="0.0" type="line"/>
      <point x="187.66666666666666" y="700.0" type="line"/>
      <point x="214.66666666666666" y="700.0"/>
      <point x="304.6666666666667" y="700.0"/>
    </contour>
    <contour>
      <point x="444.6666666666667" y="700.0" type="line"/>
      <point x="444.6666666666667" y="575.0" type="line"/>
      <point x="74.66666666666667" y="575.0" type="line"/>
      <point x="74.66666666666667" y="700.0" type="line"/>
    </contour>
    <contour>
      <point x="444.6666666666667" y="125.0" type="line"/>
      <point x="444.6666666666667" y="0.0" type="line"/>
      <point x="74.66666666666667" y="0.0" type="line"/>
      <point x="74.66666666666667" y="125.0" type="line"/>
    </contour>
  </outline>
</glyph>
<glyph name="N" format="2">
  <advance width="794"/>
  <unicode hex="004E"/>
  <note>
N
</note>
  <anchor x="393.6666666666667" y="0" name="bottom"/>
  <anchor x="393.6666666666667" y="700.0" name="top"/>
  <outline>
    <contour>
      <point x="564.3333333333334" y="503.3333333333333" type="qcurve"/>
      <point x="564.3333333333334" y="700.0" type="line"/>
      <point x="591.3333333333334" y="700.0"/>
      <point x="678.6666666666666" y="700.0"/>
      <point x="705.6666666666666" y="700.0" type="qcurve"/>
      <point x="705.6666666666666" y="0.0" type="line"/>
      <point x="574.6666666666666" y="0.0" type="line"/>
      <point x="175.66666666666666" y="531.3333333333334" type="line"/>
      <point x="210.0" y="532.6666666666666" type="line"/>
      <point x="217.71245171928027" y="459.30680522827714"/>
      <point x="230.0" y="318.5016793041391"/>
      <point x="230.0" y="257.6666666666667" type="qcurve"/>
      <point x="230.0" y="0.0" type="line"/>
      <point x="88.66666666666667" y="0.0" type="line"/>
      <point x="88.66666666666667" y="700.0" type="line"/>
      <point x="217.66666666666666" y="700.0" type="line"/>
      <point x="610.3333333333334" y="169.66666666666666" type="line"/>
      <point x="584.3333333333334" y="168.33333333333331" type="line"/>
      <point x="573.6666666666666" y="243.0"/>
      <point x="564.0" y="396.6666666666667"/>
    </contour>
  </outline>
</glyph>
<glyph name="P" format="2">
  <advance width="647"/>
  <unicode hex="0050"/>
  <note>
P
</note>
  <anchor x="321.6666666666667" y="0" name="bottom"/>
  <anchor x="321.6666666666667" y="700.0" name="top"/>
  <outline>
    <contour>
      <point x="88.66666666666667" y="700.0" type="line"/>
      <point x="383.6666666666667" y="700.0" type="line" smooth="yes"/>
      <point x="476.3333333333333" y="700.0"/>
      <point x="603.6666666666666" y="571.6666666666666"/>
      <point x="603.6666666666666" y="476.6666666666667" type="qcurve" smooth="yes"/>
      <point x="603.6666666666666" y="380.0"/>
      <point x="476.3333333333333" y="248.0"/>
      <point x="383.6666666666667" y="248.0" type="qcurve"/>
      <point x="198.66666666666666" y="248.0" type="line"/>
      <point x="232.66666666666666" y="282.0" type="line"/>
      <point x="232.66666666666666" y="0.0" type="line"/>
      <point x="88.66666666666667" y="0.0" type="line"/>
    </contour>
    <contour>
      <point x="197.66666666666666" y="378.6666666666667" type="line"/>
      <point x="369.0" y="378.6666666666667" type="line" smooth="yes"/>
      <point x="405.3333333333333" y="378.6666666666667"/>
      <point x="456.3333333333333" y="434.3333333333333"/>
      <point x="456.3333333333333" y="475.3333333333333" type="qcurve" smooth="yes"/>
      <point x="456.3333333333333" y="516.3333333333334"/>
      <point x="405.3333333333333" y="569.3333333333334"/>
      <point x="369.0" y="569.3333333333334" type="qcurve"/>
      <point x="197.66666666666666" y="569.3333333333334" type="line"/>
      <point x="231.33333333333334" y="611.0" type="line"/>
      <point x="231.33333333333334" y="358.0" type="line"/>
    </contour>
  </outline>
</glyph>
<glyph name="R" format="2">
  <advance width="696"/>
  <unicode hex="0052"/>
  <note>
R
</note>
  <anchor x="365.6666666666667" y="0" name="bottom"/>
  <anchor x="325.6666666666667" y="700.0" name="top"/>
  <outline>
    <contour>
      <point x="627.6666666666666" y="477.0" type="qcurve"/>
      <point x="627.6666666666666" y="383.3333333333333"/>
      <point x="494.0" y="253.0"/>
      <point x="396.6666666666667" y="253.0" type="qcurve"/>
      <point x="193.66666666666666" y="253.0" type="line"/>
      <point x="193.66666666666666" y="372.3333333333333" type="line"/>
      <point x="392.0" y="372.3333333333333" type="line"/>
      <point x="433.6666666666667" y="372.3333333333333"/>
      <point x="484.3333333333333" y="428.6666666666667"/>
      <point x="484.3333333333333" y="472.0" type="qcurve"/>
      <point x="484.3333333333333" y="517.6666666666666"/>
      <point x="422.6666666666667" y="574.0"/>
      <point x="372.0" y="574.0" type="qcurve"/>
      <point x="196.66666666666666" y="574.0" type="line"/>
      <point x="228.0" y="630.0" type="line"/>
      <point x="228.0" y="0.0" type="line"/>
      <point x="88.66666666666667" y="0.0" type="line"/>
      <point x="88.66666666666667" y="700.0" type="line"/>
      <point x="396.6666666666667" y="700.0" type="line"/>
      <point x="493.3333333333333" y="700.0"/>
      <point x="627.6666666666666" y="572.6666666666666"/>
    </contour>
    <contour>
      <point x="310.3333333333333" y="316.0" type="line"/>
      <point x="458.0" y="341.0" type="line"/>
      <point x="656.0" y="-0.6666666666666667" type="line"/>
      <point x="488.3333333333333" y="0.0" type="line"/>
    </contour>
  </outline>
</glyph>
<glyph name="S" format="2">
  <advance width="630"/>
  <unicode hex="0053"/>
  <note>
S
</note>
  <anchor x="319.3333333333333" y="0" name="bottom"/>
  <anchor x="319.3333333333333" y="700.0" name="top"/>
  <outline>
    <contour>
      <point x="32.66666666666667" y="128.0" type="qcurve"/>
      <point x="123.66666666666667" y="231.33333333333334" type="line"/>
      <point x="173.0" y="163.33333333333334"/>
      <point x="265.3333333333333" y="113.66666666666666"/>
      <point x="321.6666666666667" y="113.66666666666666" type="qcurve" smooth="yes"/>
      <point x="371.3333333333333" y="113.66666666666666"/>
      <point x="439.0" y="153.33333333333334"/>
      <point x="439.0" y="188.0" type="qcurve" smooth="yes"/>
      <point x="439.0" y="226.66666666666666"/>
      <point x="367.6666666666667" y="273.6666666666667"/>
      <point x="290.6666666666667" y="289.3333333333333" type="qcurve" smooth="yes"/>
      <point x="178.33333333333334" y="312.6666666666667"/>
      <point x="68.33333333333334" y="419.3333333333333"/>
      <point x="68.33333333333334" y="507.0" type="qcurve"/>
      <point x="68.33333333333334" y="598.0"/>
      <point x="218.66666666666666" y="713.3333333333334"/>
      <point x="322.6666666666667" y="713.3333333333334" type="qcurve"/>
      <point x="416.0" y="713.3333333333334"/>
      <point x="538.6666666666666" y="649.6666666666666"/>
      <point x="575.0" y="591.6666666666666" type="qcurve"/>
      <point x="482.3333333333333" y="501.3333333333333" type="line"/>
      <point x="451.6666666666667" y="544.3333333333334"/>
      <point x="372.3333333333333" y="589.0"/>
      <point x="326.3333333333333" y="589.0" type="qcurve"/>
      <point x="275.3333333333333" y="589.0"/>
      <point x="213.33333333333334" y="548.3333333333334"/>
      <point x="213.33333333333334" y="513.3333333333334" type="qcurve"/>
      <point x="213.33333333333334" y="479.3333333333333"/>
      <point x="270.6666666666667" y="436.3333333333333"/>
      <point x="344.3333333333333" y="421.6666666666667" type="qcurve" smooth="yes"/>
      <point x="454.3333333333333" y="399.3333333333333"/>
      <point x="583.3333333333334" y="297.6666666666667"/>
      <point x="583.3333333333334" y="213.33333333333334" type="qcurve" smooth="yes"/>
      <point x="583.3333333333334" y="108.33333333333333"/>
      <point x="436.3333333333333" y="-10.0"/>
      <point x="317.6666666666667" y="-10.0" type="qcurve" smooth="yes"/>
      <point x="220.66666666666666" y="-10.0"/>
      <point x="82.0" y="61.0"/>
    </contour>
  </outline>
</glyph>
<glyph name="asciicircum" format="2">
  <advance width="587"/>
  <unicode hex="005E"/>
  <note>
asciicircum
</note>
  <outline>
    <contour>
      <point x="159.0" y="364.0" type="line"/>
      <point x="19.333333333333336" y="364.0" type="line"/>
      <point x="235.33333333333334" y="730.3333333333334" type="line"/>
      <point x="352.0" y="730.3333333333334" type="line"/>
      <point x="568.0" y="364.0" type="line"/>
      <point x="426.0" y="364.0" type="line"/>
      <point x="266.0" y="639.6666666666666" type="line"/>
      <point x="323.0" y="642.0" type="line"/>
    </contour>
  </outline>
</glyph>
<glyph name="r" format="2">
  <advance width="433"/>
  <unicode hex="0072"/>
  <note>
r
</note>
  <anchor x="140.33333333333334" y="0" name="bottom"/>
  <anchor x="232.66666666666666" y="518.3333333333334" name="top"/>
  <outline>
    <contour>
      <point x="423.0" y="529.6666666666666" type="qcurve"/>
      <point x="386.3333333333333" y="380.0" type="line"/>
      <point x="375.0" y="385.6666666666667"/>
      <point x="341.3333333333333" y="394.3333333333333"/>
      <point x="323.6666666666667" y="394.3333333333333" type="qcurve" smooth="yes"/>
      <point x="275.3333333333333" y="394.3333333333333"/>
      <point x="208.33333333333331" y="327.0"/>
      <point x="208.33333333333331" y="276.0" type="qcurve"/>
      <point x="208.33333333333331" y="0.0" type="line"/>
      <point x="71.33333333333333" y="0.0" type="line"/>
      <point x="71.33333333333333" y="528.3333333333334" type="line"/>
      <point x="203.33333333333334" y="528.3333333333334" type="line"/>
      <point x="207.33333333333334" y="359.0" type="line"/>
      <point x="185.66666666666666" y="395.0" type="line"/>
      <point x="203.33333333333334" y="456.0"/>
      <point x="304.0" y="539.3333333333334"/>
      <point x="363.3333333333333" y="539.3333333333334" type="qcurve"/>
      <point x="380.6666666666667" y="539.3333333333334"/>
      <point x="412.0" y="533.6666666666666"/>
    </contour>
  </outline>
</glyph>
<glyph name="s" format="2">
  <advance width="488"/>
  <unicode hex="0073"/>
  <note>
s
</note>
  <anchor x="241.33333333333334" y="0" name="bottom"/>
  <anchor x="241.33333333333334" y="531.6666666666666" name="top"/>
  <outline>
    <contour>
      <point x="27.0" y="81.66666666666667" type="qcurve"/>
      <point x="113.0" y="155.33333333333334" type="line"/>
      <point x="145.24729080834595" y="120.7196005712603"/>
      <point x="219.4120082815735" y="93.0"/>
      <point x="260.6666666666667" y="93.0" type="qcurve"/>
      <point x="290.0" y="93.0"/>
      <point x="327.0" y="121.33333333333333"/>
      <point x="327.0" y="145.66666666666666" type="qcurve"/>
      <point x="327.0" y="168.0"/>
      <point x="290.6666666666667" y="193.33333333333334"/>
      <point x="223.33333333333334" y="211.0" type="qcurve"/>
      <point x="128.9813471677894" y="235.67138890266935"/>
      <point x="43.333333333333336" y="316.06432748538015"/>
      <point x="43.333333333333336" y="380.6666666666667" type="qcurve"/>
      <point x="43.333333333333336" y="451.68939393939394"/>
      <point x="163.33333333333334" y="539.3333333333334"/>
      <point x="245.0" y="539.3333333333334" type="qcurve"/>
      <point x="306.6666666666667" y="539.3333333333334"/>
      <point x="416.6666666666667" y="495.3333333333333"/>
      <point x="453.6666666666667" y="457.3333333333333" type="qcurve"/>
      <point x="380.0" y="375.6666666666667" type="line"/>
      <point x="352.3333333333333" y="402.0"/>
      <point x="275.3333333333333" y="437.3333333333333"/>
      <point x="245.66666666666666" y="437.3333333333333" type="qcurve"/>
      <point x="213.0" y="437.3333333333333"/>
      <point x="176.33333333333334" y="411.6666666666667"/>
      <point x="176.33333333333334" y="387.6666666666667" type="qcurve"/>
      <point x="177.0" y="363.6666666666667"/>
      <point x="215.6172872043812" y="335.34761173206647"/>
      <point x="288.6666666666667" y="316.0" type="qcurve"/>
      <point x="380.28330325946615" y="291.34762764015255"/>
      <point x="457.0" y="217.34156378600824"/>
      <point x="457.0" y="157.0" type="qcurve"/>
      <point x="457.0" y="84.33333333333333"/>
      <point x="337.3333333333333" y="-10.0"/>
      <point x="249.0" y="-10.0" type="qcurve"/>
      <point x="176.14503816793894" y="-10.0"/>
      <point x="62.45763570823187" y="38.23162889988721"/>
    </contour>
  </outline>
</glyph>
<glyph name="t" format="2">
  <advance width="392"/>
  <unicode hex="0074"/>
  <note>
t
</note>
  <anchor x="186.0" y="0" name="bottom"/>
  <anchor x="196.0" y="239.33333333333334" name="center"/>
  <anchor x="186.66666666666666" y="654.0" name="top"/>
  <anchor x="328.6666666666667" y="568.0" name="topright"/>
  <outline>
    <contour>
      <point x="260.3333333333333" y="662.6666666666666" type="line"/>
      <point x="260.3333333333333" y="0.0" type="line"/>
      <point x="124.0" y="0.0" type="line"/>
      <point x="124.0" y="662.6666666666666" type="line"/>
    </contour>
    <contour>
      <point x="374.3333333333333" y="528.3333333333334" type="line"/>
      <point x="374.3333333333333" y="405.0" type="line"/>
      <point x="27.0" y="405.0" type="line"/>
      <point x="27.0" y="528.3333333333334" type="line"/>
    </contour>
  </outline>
</glyph>
<glyph name="ordfeminine" format="2">
  <advance width="387"/>
  <unicode hex="00AA"/>
  <note>
ordfeminine
</note>
  <outline>
    <contour>
      <point x="147.66666666666666" y="390.6666666666667" type="qcurve"/>
      <point x="90.33333333333333" y="390.6666666666667"/>
      <point x="23.333333333333332" y="485.0"/>
      <point x="23.333333333333332" y="562.0" type="qcurve"/>
      <point x="23.333333333333332" y="631.0"/>
      <point x="99.33333333333333" y="721.3333333333334"/>
      <point x="159.66666666666666" y="721.3333333333334" type="qcurve"/>
      <point x="210.25242718446603" y="721.3333333333334"/>
      <point x="265.3333333333333" y="659.2592592592592"/>
      <point x="265.3333333333333" y="602.0" type="qcurve"/>
      <point x="247.0" y="648.0" type="line"/>
      <point x="247.0" y="715.0" type="line"/>
      <point x="353.3333333333333" y="715.0" type="line"/>
      <point x="353.3333333333333" y="401.0" type="line"/>
      <point x="247.0" y="401.0" type="line"/>
      <point x="247.0" y="474.0" type="line"/>
      <point x="265.3333333333333" y="502.0" type="line"/>
      <point x="265.3333333333333" y="460.4065040650407"/>
      <point x="195.0" y="390.6666666666667"/>
    </contour>
    <contour>
      <point x="129.0" y="561.0" type="qcurve"/>
      <point x="129.0" y="518.1261261261261"/>
      <point x="159.33333333333334" y="468.0"/>
      <point x="186.66666666666666" y="468.0" type="qcurve"/>
      <point x="215.33333333333334" y="468.0"/>
      <point x="251.0" y="516.2189054726368"/>
      <point x="251.0" y="556.0" type="qcurve"/>
      <point x="251.0" y="596.8695652173913"/>
      <point x="216.33333333333334" y="644.0"/>
      <point x="185.66666666666666" y="644.0" type="qcurve"/>
      <point x="162.0" y="644.0"/>
      <point x="129.0" y="595.4193548387096"/>
    </contour>
  </outline>
</glyph>
<glyph name="registered" format="2">
  <advance width="507"/>
  <unicode hex="00AE"/>
  <note>
registered
</note>
  <outline>
    <contour>
      <point x="498.3333333333333" y="484.0" type="qcurve" smooth="yes"/>
      <point x="498.3333333333333" y="384.3333333333333"/>
      <point x="358.48180494905387" y="245.66666666666666"/>
      <point x="259.3333333333333" y="245.66666666666666" type="qcurve" smooth="yes"/>
      <point x="157.768115942029" y="245.66666666666666"/>
      <point x="16.0" y="384.3333333333333"/>
      <point x="16.0" y="484.0" type="qcurve" smooth="yes"/>
      <point x="16.0" y="583.6666666666666"/>
      <point x="158.82608695652175" y="722.3333333333334"/>
      <point x="259.3333333333333" y="722.3333333333334" type="qcurve" smooth="yes"/>
      <point x="357.43813682678314" y="722.3333333333334"/>
      <point x="498.3333333333333" y="582.6666666666666"/>
    </contour>
    <contour>
      <point x="362.6666666666667" y="531.6666666666666" type="qcurve" smooth="yes"/>
      <point x="362.6666666666667" y="498.4301075268817"/>
      <point x="315.6666666666667" y="456.0"/>
      <point x="282.0" y="456.0" type="qcurve"/>
      <point x="211.0" y="456.0" type="line"/>
      <point x="235.66666666666666" y="466.6666666666667" type="line"/>
      <point x="235.66666666666666" y="367.0" type="line"/>
      <point x="165.33333333333334" y="367.0" type="line"/>
      <point x="165.33333333333334" y="606.0" type="line"/>
      <point x="282.0" y="606.0" type="line" smooth="yes"/>
      <point x="317.97297297297297" y="606.0"/>
      <point x="362.6666666666667" y="564.7037037037037"/>
    </contour>
    <contour>
      <point x="213.0" y="502.0" type="line"/>
      <point x="262.0" y="502.0" type="line" smooth="yes"/>
      <point x="276.0" y="502.0"/>
      <point x="294.3333333333333" y="515.0"/>
      <point x="294.3333333333333" y="525.6666666666666" type="qcurve" smooth="yes"/>
      <point x="294.3333333333333" y="537.0"/>
      <point x="278.6666666666667" y="549.3333333333334"/>
      <point x="264.0" y="549.3333333333334" type="qcurve"/>
      <point x="210.0" y="549.3333333333334" type="line"/>
      <point x="235.66666666666666" y="557.3333333333334" type="line"/>
      <point x="235.66666666666666" y="495.0" type="line"/>
    </contour>
    <contour>
      <point x="83.66666666666667" y="484.0" type="qcurve" smooth="yes"/>
      <point x="83.66666666666667" y="412.7350427350427"/>
      <point x="186.33333333333334" y="314.3333333333333"/>
      <point x="259.3333333333333" y="314.3333333333333" type="qcurve" smooth="yes"/>
      <point x="331.3333333333333" y="314.3333333333333"/>
      <point x="433.0" y="412.7350427350427"/>
      <point x="433.0" y="484.0" type="qcurve" smooth="yes"/>
      <point x="433.0" y="555.2721088435375"/>
      <point x="331.3333333333333" y="654.6666666666666"/>
      <point x="259.3333333333333" y="654.6666666666666" type="qcurve" smooth="yes"/>
      <point x="186.3764510779436" y="654.6666666666666"/>
      <point x="83.66666666666667" y="555.3333333333334"/>
    </contour>
    <contour>
      <point x="293.6666666666667" y="367.0" type="line"/>
      <point x="256.6666666666667" y="460.3333333333333" type="line"/>
      <point x="318.3333333333333" y="476.0" type="line"/>
      <point x="368.6666666666667" y="367.0" type="line"/>
    </contour>
  </outline>
</glyph>
<glyph name="macron" format="2">
  <advance width="424"/>
  <unicode hex="00AF"/>
  <anchor x="203.33333333333334" y="521.6666666666666" name="_top"/>
  <outline>
    <contour>
      <point x="362.3333333333333" y="581.3333333333334" type="line"/>
      <point x="61.66666666666667" y="581.3333333333334" type="line"/>
      <point x="61.66666666666667" y="676.6666666666666" type="line"/>
      <point x="362.3333333333333" y="676.6666666666666" type="line"/>
    </contour>
  </outline>
</glyph>
<glyph name="paragraph" format="2">
  <advance width="740"/>
  <unicode hex="00B6"/>
  <note>
paragraph
</note>
  <outline>
    <contour>
      <point x="651.3333333333334" y="0.0" type="line"/>
      <point x="510.0" y="0.0" type="line"/>
      <point x="510.0" y="660.0" type="line"/>
      <point x="546.0" y="596.0" type="line"/>
      <point x="325.6666666666667" y="596.0" type="line"/>
      <point x="389.6666666666667" y="652.0" type="line"/>
      <point x="389.6666666666667" y="0.0" type="line"/>
      <point x="248.33333333333334" y="0.0" type="line"/>
      <point x="248.33333333333334" y="314.0" type="line"/>
      <point x="285.6666666666667" y="275.6666666666667" type="line"/>
      <point x="235.0" y="275.6666666666667" type="line" smooth="yes"/>
      <point x="154.0" y="275.6666666666667"/>
      <point x="47.0" y="393.6666666666667"/>
      <point x="47.0" y="484.3333333333333" type="qcurve" smooth="yes"/>
      <point x="47.0" y="582.0"/>
      <point x="170.0" y="700.0"/>
      <point x="272.0" y="700.0" type="qcurve"/>
      <point x="651.3333333333334" y="700.0" type="line"/>
    </contour>
  </outline>
</glyph>
<glyph name="ordmasculine" format="2">
  <advance width="381"/>
  <unicode hex="00BA"/>
  <note>
ordmasculine
</note>
  <outline>
    <contour>
      <point x="189.33333333333334" y="713.6666666666666" type="qcurve"/>
      <point x="259.0" y="713.6666666666666"/>
      <point x="354.0" y="619.6666666666666"/>
      <point x="354.0" y="551.3333333333334" type="qcurve"/>
      <point x="354.0" y="483.3333333333333"/>
      <point x="260.3333333333333" y="392.3333333333333"/>
      <point x="189.33333333333334" y="392.3333333333333" type="qcurve"/>
      <point x="119.33333333333333" y="392.3333333333333"/>
      <point x="26.666666666666664" y="482.3333333333333"/>
      <point x="26.666666666666664" y="551.3333333333334" type="qcurve"/>
      <point x="26.666666666666664" y="620.6666666666666"/>
      <point x="119.33333333333333" y="713.6666666666666"/>
    </contour>
    <contour>
      <point x="174.0" y="495.0" type="qcurve"/>
      <point x="194.66666666666666" y="484.0"/>
      <point x="228.0" y="503.3333333333333"/>
      <point x="235.0" y="528.6666666666666" type="qcurve"/>
      <point x="242.0" y="555.3333333333334"/>
      <point x="224.66666666666666" y="602.0"/>
      <point x="204.0" y="612.3333333333334" type="qcurve"/>
      <point x="183.33333333333331" y="622.6666666666666"/>
      <point x="151.0" y="600.6666666666666"/>
      <point x="143.66666666666666" y="574.0" type="qcurve"/>
      <point x="137.33333333333334" y="548.6666666666666"/>
      <point x="154.0" y="504.0"/>
    </contour>
  </outline>
</glyph>
<glyph name="AE" format="2">
  <advance width="1031"/>
  <unicode hex="00C6"/>
  <note>
AE
</note>
  <anchor x="538.0" y="0" name="bottom"/>
  <anchor x="687.0" y="700.0" name="top"/>
  <outline>
    <contour>
      <point x="206.0" y="147.0" type="line"/>
      <point x="273.0" y="263.0" type="line"/>
      <point x="518.6666666666666" y="263.0" type="line"/>
      <point x="500.6666666666667" y="213.0" type="line"/>
      <point x="500.6666666666667" y="552.0" type="line"/>
      <point x="519.6666666666666" y="541.0" type="line"/>
      <point x="149.66666666666666" y="0.0" type="line"/>
      <point x="-3.333333333333332" y="0.0" type="line"/>
      <point x="484.6666666666667" y="700.0" type="line"/>
      <point x="965.0" y="700.0" type="line"/>
      <point x="965.0" y="579.6666666666666" type="line"/>
      <point x="628.0" y="579.6666666666666" type="line"/>
      <point x="637.0" y="588.6666666666666" type="line"/>
      <point x="637.0" y="396.3333333333333" type="line"/>
      <point x="629.0" y="413.3333333333333" type="line"/>
      <point x="920.0" y="413.3333333333333" type="line"/>
      <point x="920.0" y="296.0" type="line"/>
      <point x="627.0" y="296.0" type="line"/>
      <point x="637.0" y="310.0" type="line"/>
      <point x="637.0" y="99.33333333333333" type="line"/>
      <point x="628.0" y="120.33333333333333" type="line"/>
      <point x="965.0" y="120.33333333333333" type="line"/>
      <point x="965.0" y="0.0" type="line"/>
      <point x="500.6666666666667" y="0.0" type="line"/>
      <point x="500.6666666666667" y="166.0" type="line"/>
      <point x="523.6666666666666" y="147.0" type="line"/>
    </contour>
  </outline>
</glyph>
<glyph name="multiply" format="2">
  <advance width="512"/>
  <unicode hex="00D7"/>
  <note>
multiply
</note>
  <outline>
    <contour>
      <point x="475.6666666666667" y="143.0" type="line"/>
      <point x="393.0" y="63.333333333333336" type="line"/>
      <point x="37.0" y="418.3333333333333" type="line"/>
      <point x="119.66666666666666" y="498.3333333333333" type="line"/>
    </contour>
    <contour>
      <point x="119.0" y="58.66666666666667" type="line"/>
      <point x="39.666666666666664" y="142.33333333333334" type="line"/>
      <point x="394.3333333333333" y="498.3333333333333" type="line"/>
      <point x="474.3333333333333" y="415.6666666666667" type="line"/>
    </contour>
  </outline>
</glyph>
<glyph name="oslash" format="2">
  <advance width="630"/>
  <unicode hex="00F8"/>
  <note>
oslash
</note>
  <outline>
    <contour>
      <point x="113.66666666666667" y="-35.0" type="line"/>
      <point x="47.666666666666664" y="13.0" type="line"/>
      <point x="500.6666666666667" y="545.0" type="line"/>
      <point x="567.6666666666666" y="496.0" type="line"/>
    </contour>
    <component base="o"/>
  </outline>
</glyph>
<glyph name="thorn" format="2">
  <advance width="647"/>
  <unicode hex="00FE"/>
  <note>
thorn
</note>
  <anchor x="284.0" y="0" name="bottom"/>
  <anchor x="284.0" y="499.0" name="top"/>
  <outline>
    <contour>
      <point x="371.0" y="538.0" type="qcurve"/>
      <point x="474.6666666666667" y="538.0"/>
      <point x="610.3333333333334" y="384.3333333333333"/>
      <point x="610.3333333333334" y="264.6666666666667" type="qcurve"/>
      <point x="610.3333333333334" y="146.33333333333334"/>
      <point x="474.6666666666667" y="-9.0"/>
      <point x="371.3333333333333" y="-9.0" type="qcurve"/>
      <point x="302.6666666666667" y="-9.0"/>
      <point x="188.0" y="68.0"/>
      <point x="176.33333333333334" y="117.0" type="qcurve"/>
      <point x="208.66666666666666" y="131.0" type="line"/>
      <point x="208.66666666666666" y="-220.0" type="line"/>
      <point x="71.33333333333333" y="-220.0" type="line"/>
      <point x="71.33333333333333" y="740.0" type="line"/>
      <point x="208.66666666666666" y="740.0" type="line"/>
      <point x="208.66666666666666" y="409.0" type="line"/>
      <point x="182.66666666666666" y="418.0" type="line"/>
      <point x="192.0" y="465.3333333333333"/>
      <point x="303.6666666666667" y="538.0"/>
    </contour>
    <contour>
      <point x="478.0" y="264.6666666666667" type="qcurve"/>
      <point x="478.0" y="333.3333333333333"/>
      <point x="402.3333333333333" y="419.6666666666667"/>
      <point x="341.3333333333333" y="419.6666666666667" type="qcurve"/>
      <point x="280.0" y="419.6666666666667"/>
      <point x="203.66666666666666" y="334.0"/>
      <point x="203.66666666666666" y="264.6666666666667" type="qcurve"/>
      <point x="203.66666666666666" y="196.0"/>
      <point x="280.0" y="109.33333333333333"/>
      <point x="341.3333333333333" y="109.33333333333333" type="qcurve"/>
      <point x="401.6666666666667" y="109.33333333333333"/>
      <point x="478.0" y="196.0"/>
    </contour>
  </outline>
</glyph>
<glyph name="Eogonek" format="2">
  <advance width="632"/>
  <unicode hex="0118"/>
  <note>
Eogonek
</note>
  <outline>
    <contour>
      <point x="427.0" y="-219.0" type="qcurve" smooth="yes"/>
      <point x="373.6666666666667" y="-219.0"/>
      <point x="304.0" y="-158.33333333333334"/>
      <point x="304.0" y="-110.33333333333333" type="qcurve" smooth="yes"/>
      <point x="304.0" y="-60.333333333333336"/>
      <point x="406.6666666666667" y="31.666666666666668"/>
      <point x="479.0" y="51.0" type="qcurve"/>
      <point x="529.0" y="0.0" type="line"/>
      <point x="475.0" y="-18.333333333333336"/>
      <point x="408.0" y="-67.33333333333333"/>
      <point x="408.0" y="-91.66666666666667" type="qcurve" smooth="yes"/>
      <point x="408.0" y="-107.0"/>
      <point x="430.0" y="-128.33333333333334"/>
      <point x="447.0" y="-128.33333333333334" type="qcurve" smooth="yes"/>
      <point x="459.3333333333333" y="-128.33333333333334"/>
      <point x="486.0" y="-115.33333333333333"/>
      <point x="500.0" y="-103.33333333333333" type="qcurve"/>
      <point x="549.6666666666666" y="-166.33333333333334" type="line"/>
      <point x="522.3333333333334" y="-189.66666666666666"/>
      <point x="460.3333333333333" y="-219.0"/>
    </contour>
    <component base="E"/>
  </outline>
</glyph>
<glyph name="iogonek" format="2">
  <advance width="312"/>
  <unicode hex="012F"/>
  <note>
iogonek
</note>
  <outline>
    <contour>
      <point x="139.66666666666666" y="53.666666666666664" type="qcurve"/>
      <point x="88.33333333333333" y="-5.0" type="line"/>
      <point x="88.33333333333333" y="528.3333333333334" type="line"/>
      <point x="224.66666666666666" y="528.3333333333334" type="line"/>
      <point x="224.66666666666666" y="0.0" type="line"/>
      <point x="173.33333333333334" y="-17.666666666666668"/>
      <point x="110.66666666666666" y="-68.363184079602"/>
      <point x="110.66666666666666" y="-92.33333333333333" type="qcurve" smooth="yes"/>
      <point x="110.66666666666666" y="-107.66666666666667"/>
      <point x="132.66666666666666" y="-127.66666666666667"/>
      <point x="149.66666666666666" y="-127.66666666666667" type="qcurve" smooth="yes"/>
      <point x="160.66666666666666" y="-127.66666666666667"/>
      <point x="183.33333333333334" y="-115.33333333333333"/>
      <point x="196.0" y="-102.66666666666667" type="qcurve"/>
      <point x="248.66666666666666" y="-161.66666666666666" type="line"/>
      <point x="222.66666666666666" y="-186.33333333333334"/>
      <point x="162.0" y="-220.0"/>
      <point x="129.66666666666666" y="-220.0" type="qcurve" smooth="yes"/>
      <point x="76.33333333333333" y="-220.0"/>
      <point x="6.666666666666666" y="-157.66666666666666"/>
      <point x="6.666666666666666" y="-109.66666666666667" type="qcurve" smooth="yes"/>
      <point x="6.666666666666666" y="-64.6897689768977"/>
      <point x="72.4970782128765" y="14.069341580626073"/>
    </contour>
    <component base="dotaccentcomb" xOffset="50" yOffset="4"/>
  </outline>
</glyph>
<glyph name="idotless" format="2">
  <advance width="270"/>
  <unicode hex="0131"/>
  <note>
dotlessi
</note>
  <anchor x="136.66666666666666" y="0" name="bottom"/>
  <anchor x="220.66666666666666" y="10.0" name="ogonek"/>
  <anchor x="136.66666666666666" y="528.3333333333334" name="top"/>
  <outline>
    <contour>
      <point x="204.33333333333334" y="528.3333333333334" type="line"/>
      <point x="204.33333333333334" y="0.0" type="line"/>
      <point x="68.0" y="0.0" type="line"/>
      <point x="68.0" y="528.3333333333334" type="line"/>
    </contour>
  </outline>
</glyph>
<glyph name="kgreenlandic" format="2">
  <advance width="594"/>
  <unicode hex="0138"/>
  <anchor x="294.0" y="0" name="bottom"/>
  <anchor x="294.0" y="510.0" name="top"/>
  <outline>
    <contour>
      <point x="205.0" y="0.0" type="line"/>
      <point x="72.66666666666667" y="0.0" type="line"/>
      <point x="72.66666666666667" y="528.3333333333334" type="line"/>
      <point x="205.0" y="528.3333333333334" type="line"/>
    </contour>
    <contour>
      <point x="410.6666666666667" y="528.3333333333334" type="line"/>
      <point x="579.3333333333334" y="528.3333333333334" type="line"/>
      <point x="313.6666666666667" y="259.6666666666667" type="line"/>
      <point x="197.66666666666666" y="142.66666666666666" type="line"/>
      <point x="161.0" y="252.66666666666666" type="line"/>
    </contour>
    <contour>
      <point x="578.0" y="-0.6666666666666667" type="line"/>
      <point x="418.6666666666667" y="0.0" type="line"/>
      <point x="234.0" y="265.0" type="line"/>
      <point x="327.3333333333333" y="330.3333333333333" type="line"/>
    </contour>
  </outline>
</glyph>
<glyph name="oogonek" format="2">
  <advance width="625"/>
  <unicode hex="01EB"/>
  <outline>
    <contour>
      <point x="201.0" y="228.66666666666669" type="qcurve"/>
      <point x="214.66666666666666" y="176.0"/>
      <point x="296.3333333333333" y="126.33333333333333"/>
      <point x="344.3333333333333" y="142.0" type="qcurve"/>
      <point x="392.3333333333333" y="158.0"/>
      <point x="438.0" y="247.66666666666666"/>
      <point x="424.3333333333333" y="301.0" type="qcurve"/>
      <point x="410.3333333333333" y="354.3333333333333"/>
      <point x="329.0" y="403.3333333333333"/>
      <point x="281.0" y="387.3333333333333" type="qcurve"/>
      <point x="233.0" y="371.6666666666667"/>
      <point x="187.0" y="282.0"/>
    </contour>
    <contour>
      <point x="306.3333333333333" y="-10.333333333333334" type="qcurve"/>
      <point x="183.33333333333334" y="-4.0"/>
      <point x="36.0" y="149.66666666666666"/>
      <point x="36.0" y="264.6666666666667" type="qcurve"/>
      <point x="36.0" y="383.6666666666667"/>
      <point x="193.33333333333334" y="539.3333333333334"/>
      <point x="313.0" y="539.3333333333334" type="qcurve"/>
      <point x="431.6666666666667" y="539.3333333333334"/>
      <point x="588.6666666666666" y="383.6666666666667"/>
      <point x="588.6666666666666" y="264.6666666666667" type="qcurve"/>
      <point x="588.6666666666666" y="179.0"/>
      <point x="504.6666666666667" y="47.0"/>
      <point x="433.3333333333333" y="17.0" type="qcurve"/>
      <point x="393.6666666666667" y="-1.3333333333333335"/>
      <point x="343.3333333333333" y="-47.78109452736319"/>
      <point x="343.3333333333333" y="-70.66666666666667" type="qcurve"/>
      <point x="343.3333333333333" y="-88.66666666666667"/>
      <point x="362.6666666666667" y="-112.0"/>
      <point x="377.0" y="-112.0" type="qcurve"/>
      <point x="389.3333333333333" y="-112.0"/>
      <point x="411.3333333333333" y="-96.33333333333333"/>
      <point x="421.3333333333333" y="-81.0" type="qcurve"/>
      <point x="478.0" y="-130.0" type="line"/>
      <point x="461.3333333333333" y="-160.0"/>
      <point x="398.0" y="-204.33333333333334"/>
      <point x="361.0" y="-204.33333333333334" type="qcurve"/>
      <point x="311.6666666666667" y="-204.33333333333334"/>
      <point x="247.33333333333334" y="-142.0"/>
      <point x="247.33333333333334" y="-92.0" type="qcurve"/>
      <point x="247.33333333333334" y="-40.352024922118375"/>
      <point x="312.3333333333333" y="37.333333333333336"/>
      <point x="384.6666666666667" y="67.66666666666667" type="qcurve"/>
      <point x="404.3333333333333" y="26.333333333333336" type="line"/>
      <point x="386.6666666666667" y="14.0"/>
      <point x="326.768115942029" y="-10.333333333333334"/>
    </contour>
  </outline>
</glyph>
<glyph name="nhookleft" format="2">
  <advance width="631"/>
  <unicode hex="0272"/>
  <anchor x="316.0" y="0" name="bottom"/>
  <anchor x="316.0" y="510.0" name="top"/>
  <outline>
    <contour>
      <point x="83.33333333333333" y="24.333333333333332" type="qcurve"/>
      <point x="219.66666666666666" y="61.666666666666664" type="line"/>
      <point x="219.66666666666666" y="-8.333333333333334" type="line" smooth="yes"/>
      <point x="219.66666666666666" y="-102.0"/>
      <point x="110.66666666666666" y="-200.33333333333334"/>
      <point x="14.666666666666666" y="-200.33333333333334" type="qcurve"/>
      <point x="-40.666666666666664" y="-94.66666666666667" type="line"/>
      <point x="21.666666666666668" y="-94.66666666666667"/>
      <point x="83.33333333333333" y="-35.0"/>
    </contour>
    <component base="n" xOffset="13"/>
  </outline>
</glyph>
<glyph name="dotaccentcomb" format="2">
  <advance width="79"/>
  <unicode hex="0307"/>
  <outline>
    <contour>
      <point x="194.66666666666666" y="686.0" type="qcurve" smooth="yes"/>
      <point x="194.66666666666666" y="652.6666666666666"/>
      <point x="149.33333333333334" y="610.6666666666666"/>
      <point x="110.33333333333333" y="610.6666666666666" type="qcurve" smooth="yes"/>
      <point x="70.33333333333333" y="610.6666666666666"/>
      <point x="26.0" y="650.0"/>
      <point x="26.0" y="686.0" type="qcurve" smooth="yes"/>
      <point x="26.0" y="719.3333333333334"/>
      <point x="71.33333333333333" y="761.3333333333334"/>
      <point x="110.33333333333333" y="761.3333333333334" type="qcurve" smooth="yes"/>
      <point x="150.33333333333334" y="761.3333333333334"/>
      <point x="194.66666666666666" y="722.0"/>
    </contour>
  </outline>
</glyph>
<glyph name="ringcomb" format="2">
  <advance width="112"/>
  <unicode hex="030A"/>
  <outline>
    <contour>
      <point x="275.6666666666667" y="672.0" type="qcurve"/>
      <point x="275.6666666666667" y="627.0"/>
      <point x="206.0" y="560.6666666666666"/>
      <point x="159.33333333333334" y="560.6666666666666" type="qcurve"/>
      <point x="113.33333333333333" y="560.6666666666666"/>
      <point x="43.666666666666664" y="627.0"/>
      <point x="43.666666666666664" y="672.0" type="qcurve"/>
      <point x="43.666666666666664" y="718.0"/>
      <point x="112.33333333333333" y="784.6666666666666"/>
      <point x="159.33333333333334" y="784.6666666666666" type="qcurve"/>
      <point x="206.33333333333334" y="784.6666666666666"/>
      <point x="275.6666666666667" y="718.0"/>
    </contour>
    <contour>
      <point x="117.33333333333333" y="672.3333333333334" type="qcurve"/>
      <point x="117.33333333333333" y="655.3333333333334"/>
      <point x="142.0" y="632.0"/>
      <point x="159.33333333333334" y="632.0" type="qcurve"/>
      <point x="177.33333333333334" y="632.0"/>
      <point x="202.0" y="655.3333333333334"/>
      <point x="202.0" y="672.0" type="qcurve"/>
      <point x="202.0" y="690.3333333333334"/>
      <point x="177.33333333333334" y="713.3333333333334"/>
      <point x="159.33333333333334" y="713.3333333333334" type="qcurve"/>
      <point x="141.33333333333334" y="713.3333333333334"/>
      <point x="117.33333333333333" y="690.0"/>
    </contour>
  </outline>
</glyph>
<glyph name="caroncomb" format="2">
  <advance width="132"/>
  <unicode hex="030C"/>
  <outline>
    <contour>
      <point x="201.66666666666666" y="695.0" type="line"/>
      <point x="171.66666666666666" y="695.0" type="line"/>
      <point x="303.3333333333333" y="769.6666666666666" type="line"/>
      <point x="348.0" y="733.3333333333334" type="line"/>
      <point x="232.33333333333334" y="610.3333333333334" type="line"/>
      <point x="141.0" y="610.3333333333334" type="line"/>
      <point x="25.333333333333336" y="733.3333333333334" type="line"/>
      <point x="70.0" y="769.6666666666666" type="line"/>
    </contour>
  </outline>
</glyph>
<glyph name="dotbelowcomb" format="2">
  <unicode hex="0323"/>
  <anchor x="103.33333333333333" y="-2.0" name="_bottom"/>
  <anchor x="103.33333333333333" y="-223.0" name="bottom"/>
  <outline>
    <contour>
      <point x="186.66666666666666" y="-139.66666666666666" type="qcurve" smooth="yes"/>
      <point x="186.66666666666666" y="-173.66666666666666"/>
      <point x="140.66666666666666" y="-216.33333333333334"/>
      <point x="101.0" y="-216.33333333333334" type="qcurve" smooth="yes"/>
      <point x="60.333333333333336" y="-216.33333333333334"/>
      <point x="15.333333333333336" y="-176.33333333333334"/>
      <point x="15.333333333333336" y="-139.66666666666666" type="qcurve" smooth="yes"/>
      <point x="15.333333333333336" y="-105.66666666666667"/>
      <point x="61.333333333333336" y="-63.0"/>
      <point x="101.0" y="-63.0" type="qcurve" smooth="yes"/>
      <point x="141.66666666666666" y="-63.0"/>
      <point x="186.66666666666666" y="-103.0"/>
    </contour>
  </outline>
</glyph>
<glyph name="dieresisbelowcomb" format="2">
  <unicode hex="0324"/>
  <anchor x="197.66666666666666" y="0" name="_bottom"/>
  <anchor x="197.66666666666666" y="-150.0" name="bottom"/>
  <outline>
    <contour>
      <point x="303.6666666666667" y="-171.33333333333334" type="qcurve"/>
      <point x="269.3333333333333" y="-171.33333333333334"/>
      <point x="237.33333333333334" y="-143.33333333333334"/>
      <point x="237.33333333333334" y="-112.66666666666667" type="qcurve"/>
      <point x="237.33333333333334" y="-93.66666666666667" type="line" smooth="yes"/>
      <point x="237.33333333333334" y="-64.0"/>
      <point x="270.3333333333333" y="-34.66666666666667"/>
      <point x="305.3333333333333" y="-34.66666666666667" type="qcurve"/>
      <point x="340.6666666666667" y="-34.66666666666667"/>
      <point x="374.0" y="-62.666666666666664"/>
      <point x="374.0" y="-93.66666666666667" type="qcurve"/>
      <point x="374.0" y="-112.66666666666667" type="line" smooth="yes"/>
      <point x="374.0" y="-144.66666666666666"/>
      <point x="342.0" y="-171.33333333333334"/>
    </contour>
    <contour>
      <point x="88.0" y="-171.33333333333334" type="qcurve"/>
      <point x="53.66666666666667" y="-171.33333333333334"/>
      <point x="21.666666666666668" y="-143.33333333333334"/>
      <point x="21.666666666666668" y="-112.66666666666667" type="qcurve"/>
      <point x="21.666666666666668" y="-93.66666666666667" type="line" smooth="yes"/>
      <point x="21.666666666666668" y="-64.0"/>
      <point x="55.0" y="-34.66666666666667"/>
      <point x="88.0" y="-34.66666666666667" type="qcurve"/>
      <point x="125.33333333333333" y="-34.66666666666667"/>
      <point x="158.33333333333334" y="-61.666666666666664"/>
      <point x="158.33333333333334" y="-93.66666666666667" type="qcurve"/>
      <point x="158.33333333333334" y="-112.66666666666667" type="line" smooth="yes"/>
      <point x="158.33333333333334" y="-144.66666666666666"/>
      <point x="126.33333333333333" y="-171.33333333333334"/>
    </contour>
  </outline>
</glyph>
<glyph name="ogonekcomb" format="2">
  <advance width="98"/>
  <unicode hex="0328"/>
  <outline>
    <contour>
      <point x="141.33333333333334" y="-207.33333333333334" type="qcurve" smooth="yes"/>
      <point x="94.0" y="-207.33333333333334"/>
      <point x="25.666666666666668" y="-144.33333333333334"/>
      <point x="25.666666666666668" y="-99.66666666666667" type="qcurve" smooth="yes"/>
      <point x="25.666666666666668" y="-49.0"/>
      <point x="109.33333333333333" y="28.333333333333332"/>
      <point x="187.33333333333334" y="49.666666666666664" type="qcurve"/>
      <point x="220.33333333333334" y="43.333333333333336" type="line"/>
      <point x="231.33333333333334" y="-0.6666666666666667" type="line"/>
      <point x="189.33333333333334" y="-10.333333333333334"/>
      <point x="128.33333333333334" y="-57.333333333333336"/>
      <point x="128.33333333333334" y="-83.66666666666667" type="qcurve" smooth="yes"/>
      <point x="128.33333333333334" y="-97.66666666666667"/>
      <point x="145.0" y="-115.0"/>
      <point x="158.66666666666666" y="-115.0" type="qcurve" smooth="yes"/>
      <point x="169.0" y="-115.0"/>
      <point x="185.0" y="-102.66666666666667"/>
      <point x="193.0" y="-90.66666666666667" type="qcurve"/>
      <point x="257.0" y="-137.0" type="line"/>
      <point x="244.33333333333334" y="-163.66666666666666"/>
      <point x="179.66666666666666" y="-207.33333333333334"/>
    </contour>
  </outline>
</glyph>
<glyph name="Germandbls" format="2">
  <advance width="784"/>
  <unicode hex="1E9E"/>
  <outline>
    <contour>
      <point x="665.0" y="582.3333333333334" type="line"/>
      <point x="577.3333333333334" y="571.3333333333334"/>
      <point x="482.3333333333333" y="513.0"/>
      <point x="482.3333333333333" y="476.0" type="qcurve" smooth="yes"/>
      <point x="482.3333333333333" y="449.0"/>
      <point x="529.0" y="403.6666666666667"/>
      <point x="575.6666666666666" y="384.0" type="qcurve" smooth="yes"/>
      <point x="630.3333333333334" y="361.3333333333333"/>
      <point x="679.0" y="329.3333333333333"/>
      <point x="696.6666666666666" y="309.6666666666667" type="qcurve" smooth="yes"/>
      <point x="717.3333333333334" y="287.0"/>
      <point x="737.6666666666666" y="228.0"/>
      <point x="737.6666666666666" y="190.0" type="qcurve" smooth="yes"/>
      <point x="737.6666666666666" y="108.66666666666667"/>
      <point x="596.0" y="-10.0"/>
      <point x="499.3333333333333" y="-10.0" type="qcurve" smooth="yes"/>
      <point x="439.6666666666667" y="-10.0"/>
      <point x="329.3333333333333" y="35.666666666666664"/>
      <point x="299.0" y="75.0" type="qcurve"/>
      <point x="386.0" y="178.33333333333334" type="line"/>
      <point x="409.6666666666667" y="147.0"/>
      <point x="470.3333333333333" y="110.33333333333333"/>
      <point x="498.6666666666667" y="110.33333333333333" type="qcurve" smooth="yes"/>
      <point x="540.3333333333334" y="110.33333333333333"/>
      <point x="589.3333333333334" y="146.66666666666666"/>
      <point x="589.3333333333334" y="177.66666666666666" type="qcurve" smooth="yes"/>
      <point x="589.3333333333334" y="199.66666666666666"/>
      <point x="566.0" y="232.66666666666666"/>
      <point x="544.3333333333334" y="246.66666666666666" type="qcurve" smooth="yes"/>
      <point x="536.3333333333334" y="251.66666666666666"/>
      <point x="495.0" y="273.6666666666667"/>
      <point x="459.6666666666667" y="291.0" type="qcurve" smooth="yes"/>
      <point x="391.3333333333333" y="325.3333333333333"/>
      <point x="338.6666666666667" y="399.6666666666667"/>
      <point x="338.6666666666667" y="453.3333333333333" type="qcurve" smooth="yes"/>
      <point x="338.6666666666667" y="528.3333333333334"/>
      <point x="466.0" y="623.0"/>
      <point x="568.0" y="630.0" type="qcurve"/>
      <point x="601.6666666666666" y="585.0" type="line"/>
      <point x="570.3333333333334" y="596.6666666666666"/>
      <point x="473.3333333333333" y="612.0"/>
      <point x="431.0" y="612.0" type="qcurve"/>
      <point x="339.6666666666667" y="613.6666666666666"/>
      <point x="231.66666666666666" y="468.6666666666667"/>
      <point x="230.66666666666666" y="343.0" type="qcurve"/>
      <point x="229.33333333333334" y="0.6666666666666667" type="line"/>
      <point x="85.33333333333333" y="0.6666666666666667" type="line"/>
      <point x="86.0" y="350.0" type="line" smooth="yes"/>
      <point x="86.66666666666667" y="519.0"/>
      <point x="264.3333333333333" y="726.0"/>
      <point x="411.0" y="726.0" type="qcurve" smooth="yes"/>
      <point x="478.3333333333333" y="726.0"/>
      <point x="605.0" y="705.6666666666666"/>
      <point x="660.0" y="682.0" type="qcurve"/>
    </contour>
  </outline>
</glyph>
<glyph name="dagger" format="2">
  <advance width="440"/>
  <unicode hex="2020"/>
  <note>
dagger
</note>
  <outline>
    <contour>
      <point x="154.0" y="209.33333333333334" type="line"/>
      <point x="154.0" y="721.0" type="line"/>
      <point x="285.3333333333333" y="721.0" type="line"/>
      <point x="285.3333333333333" y="209.33333333333334" type="line"/>
    </contour>
    <contour>
      <point x="397.0" y="467.0" type="line"/>
      <point x="42.333333333333336" y="467.0" type="line"/>
      <point x="42.333333333333336" y="579.0" type="line"/>
      <point x="397.0" y="579.0" type="line"/>
    </contour>
  </outline>
</glyph>
<glyph name="guilsinglleft" format="2">
  <advance width="297"/>
  <unicode hex="2039"/>
  <note>
guilsinglleft
</note>
  <outline>
    <contour>
      <point x="134.0" y="247.66666666666666" type="line"/>
      <point x="134.66666666666666" y="272.0" type="line"/>
      <point x="257.3333333333333" y="95.33333333333333" type="line"/>
      <point x="179.33333333333334" y="40.333333333333336" type="line"/>
      <point x="11.333333333333332" y="257.3333333333333" type="line"/>
      <point x="11.333333333333332" y="259.0" type="line"/>
      <point x="178.66666666666666" y="479.3333333333333" type="line"/>
      <point x="256.6666666666667" y="424.3333333333333" type="line"/>
    </contour>
  </outline>
</glyph>
<glyph name="won" format="2">
  <advance width="1014"/>
  <unicode hex="20A9"/>
  <anchor x="508.6666666666667" y="0" name="bottom"/>
  <anchor x="508.6666666666667" y="700.0" name="top"/>
  <outline>
    <contour>
      <point x="157.0" y="311.6666666666667" type="line"/>
      <point x="21.0" y="311.6666666666667" type="line"/>
      <point x="21.0" y="435.3333333333333" type="line"/>
      <point x="131.66666666666666" y="435.3333333333333" type="line"/>
      <point x="165.0" y="423.6666666666667" type="line"/>
      <point x="825.3333333333334" y="423.6666666666667" type="line"/>
      <point x="863.3333333333334" y="435.3333333333333" type="line"/>
      <point x="969.6666666666666" y="435.3333333333333" type="line"/>
      <point x="969.6666666666666" y="311.6666666666667" type="line"/>
      <point x="826.3333333333334" y="311.6666666666667" type="line"/>
      <point x="780.0" y="323.3333333333333" type="line"/>
      <point x="199.0" y="323.3333333333333" type="line"/>
    </contour>
    <component base="W" xOffset="11.666666666666666"/>
  </outline>
</glyph>
<glyph name="euro" format="2">
  <advance width="648"/>
  <unicode hex="20AC"/>
  <note>
Euro
</note>
  <outline>
    <contour>
      <point x="438.6666666666667" y="206.0" type="line"/>
      <point x="16.666666666666668" y="206.66666666666666" type="line"/>
      <point x="16.666666666666668" y="319.3333333333333" type="line"/>
      <point x="438.6666666666667" y="318.0" type="line"/>
    </contour>
    <contour>
      <point x="438.6666666666667" y="368.0" type="line"/>
      <point x="16.666666666666668" y="368.6666666666667" type="line"/>
      <point x="16.666666666666668" y="480.6666666666667" type="line"/>
      <point x="438.6666666666667" y="480.0" type="line"/>
    </contour>
    <contour>
      <point x="440.6666666666667" y="-10.0" type="qcurve"/>
      <point x="287.6666666666667" y="-10.0"/>
      <point x="90.33333333333333" y="191.33333333333334"/>
      <point x="90.33333333333333" y="351.6666666666667" type="qcurve"/>
      <point x="90.33333333333333" y="506.6666666666667"/>
      <point x="289.0" y="710.6666666666666"/>
      <point x="440.6666666666667" y="710.6666666666666" type="qcurve"/>
      <point x="485.6666666666667" y="710.6666666666666"/>
      <point x="570.6666666666666" y="688.3333333333334"/>
      <point x="606.6666666666666" y="667.0" type="qcurve"/>
      <point x="538.0" y="552.6666666666666" type="line"/>
      <point x="516.3333333333334" y="566.3333333333334"/>
      <point x="466.0" y="580.0"/>
      <point x="440.6666666666667" y="580.0" type="qcurve"/>
      <point x="348.0" y="580.0"/>
      <point x="228.33333333333331" y="451.6666666666667"/>
      <point x="228.33333333333331" y="351.6666666666667" type="qcurve"/>
      <point x="228.33333333333331" y="247.66666666666666"/>
      <point x="346.6666666666667" y="120.66666666666666"/>
      <point x="440.6666666666667" y="120.66666666666666" type="qcurve"/>
      <point x="467.6666666666667" y="120.66666666666666"/>
      <point x="517.0" y="135.33333333333334"/>
      <point x="538.6666666666666" y="149.0" type="qcurve"/>
      <point x="605.0" y="32.666666666666664" type="line"/>
      <point x="567.6666666666666" y="12.333333333333334"/>
      <point x="483.3333333333333" y="-10.0"/>
    </contour>
  </outline>
</glyph>
<glyph name="trademark" format="2">
  <advance width="845"/>
  <unicode hex="2122"/>
  <note>
trademark
</note>
  <outline>
    <contour>
      <point x="321.0" y="606.0" type="line"/>
      <point x="32.666666666666664" y="606.0" type="line"/>
      <point x="32.666666666666664" y="700.0" type="line"/>
      <point x="321.0" y="700.0" type="line"/>
    </contour>
    <contour>
      <point x="227.0" y="333.3333333333333" type="line"/>
      <point x="123.0" y="333.3333333333333" type="line"/>
      <point x="123.0" y="676.0" type="line"/>
      <point x="227.0" y="676.0" type="line"/>
    </contour>
    <contour>
      <point x="552.0" y="475.3333333333333" type="line"/>
      <point x="689.0" y="700.0" type="line"/>
      <point x="790.6666666666666" y="700.0" type="line"/>
      <point x="790.6666666666666" y="333.3333333333333" type="line"/>
      <point x="684.6666666666666" y="333.3333333333333" type="line"/>
      <point x="688.3333333333334" y="617.6666666666666" type="line"/>
      <point x="746.0" y="635.0" type="line"/>
      <point x="612.0" y="408.0" type="line"/>
      <point x="546.0" y="408.0" type="line"/>
      <point x="406.0" y="643.0" type="line"/>
      <point x="473.3333333333333" y="623.0" type="line"/>
      <point x="477.3333333333333" y="333.3333333333333" type="line"/>
      <point x="372.0" y="333.3333333333333" type="line"/>
      <point x="372.0" y="700.0" type="line"/>
      <point x="471.0" y="700.0" type="line"/>
      <point x="608.0" y="475.3333333333333" type="line"/>
    </contour>
  </outline>
</glyph>
<glyph name="divisionslash" format="2">
  <advance width="560"/>
  <unicode hex="2215"/>
  <note>
divisionslash
</note>
  <outline>
    <contour>
      <point x="126.0" y="-107.0" type="line"/>
      <point x="12.0" y="-107.0" type="line"/>
      <point x="433.0" y="756.0" type="line"/>
      <point x="548.6666666666666" y="756.0" type="line"/>
    </contour>
  </outline>
</glyph>
<glyph name="I.ss01" format="2">
  <advance width="331"/>
  <note>
I
</note>
  <anchor x="162.33333333333334" y="0" name="bottom"/>
  <anchor x="352.3333333333333" y="10.0" name="ogonek"/>
  <anchor x="162.33333333333334" y="700.0" name="top"/>
  <anchor x="109.33333333333333" y="700.0" name="topleft"/>
  <outline>
    <contour>
      <point x="237.33333333333334" y="700.0" type="qcurve"/>
      <point x="237.33333333333334" y="0.0" type="line"/>
      <point x="93.33333333333333" y="0.0" type="line"/>
      <point x="93.33333333333333" y="700.0" type="line"/>
      <point x="129.33333333333334" y="700.0"/>
      <point x="201.33333333333334" y="700.0"/>
    </contour>
  </outline>
</glyph>
<glyph name="dotaccentcomb.case" format="2">
  <anchor x="113.0" y="531.6666666666666" name="_top"/>
  <anchor x="113.0" y="738.0" name="top"/>
  <outline>
    <contour>
      <point x="198.0" y="662.0" type="qcurve" smooth="yes"/>
      <point x="198.0" y="628.6666666666666"/>
      <point x="152.7170868347339" y="586.6666666666666"/>
      <point x="113.66666666666667" y="586.6666666666666" type="qcurve" smooth="yes"/>
      <point x="73.62745098039215" y="586.6666666666666"/>
      <point x="29.333333333333336" y="626.0"/>
      <point x="29.333333333333336" y="662.0" type="qcurve" smooth="yes"/>
      <point x="29.333333333333336" y="695.3333333333334"/>
      <point x="74.61624649859944" y="737.3333333333334"/>
      <point x="113.66666666666667" y="737.3333333333334" type="qcurve" smooth="yes"/>
      <point x="153.7058823529412" y="737.3333333333334"/>
      <point x="198.0" y="698.0"/>
    </contour>
  </outline>
</glyph>
<glyph name="macroncomb.case" format="2">
  <anchor x="214.0" y="536.0" name="_top"/>
  <anchor x="214.0" y="709.0" name="top"/>
  <outline>
    <contour>
      <point x="389.0" y="607.0" type="line"/>
      <point x="42.0" y="607.0" type="line"/>
      <point x="42.0" y="703.0" type="line"/>
      <point x="389.0" y="703.0" type="line"/>
    </contour>
  </outline>
</glyph>
<glyph name="nine.dnom" format="2">
  <advance width="353"/>
  <outline>
    <contour>
      <point x="318.0" y="211.66666666666666" type="qcurve"/>
      <point x="318.0" y="114.0"/>
      <point x="230.33333333333334" y="-11.666666666666666"/>
      <point x="155.66666666666666" y="-11.666666666666666" type="qcurve"/>
      <point x="128.66666666666666" y="-11.666666666666666"/>
      <point x="70.33333333333333" y="14.0"/>
      <point x="53.333333333333336" y="31.0" type="qcurve"/>
      <point x="92.66666666666667" y="96.0" type="line"/>
      <point x="106.0" y="86.66666666666667"/>
      <point x="138.66666666666666" y="75.66666666666667"/>
      <point x="152.0" y="75.66666666666667" type="qcurve" smooth="yes"/>
      <point x="184.66666666666666" y="75.66666666666667"/>
      <point x="217.33333333333334" y="124.33333333333333"/>
      <point x="219.33333333333334" y="175.33333333333334" type="qcurve"/>
      <point x="276.6666666666667" y="239.66666666666666" type="line"/>
      <point x="260.3333333333333" y="187.33333333333334"/>
      <point x="196.0" y="126.66666666666667"/>
      <point x="156.0" y="126.66666666666667" type="qcurve"/>
      <point x="102.66666666666667" y="126.66666666666667"/>
      <point x="35.0" y="190.0"/>
      <point x="35.0" y="238.33333333333334" type="qcurve"/>
      <point x="35.0" y="295.3333333333333"/>
      <point x="113.33333333333333" y="368.3333333333333"/>
      <point x="173.0" y="368.3333333333333" type="qcurve"/>
      <point x="236.33333333333334" y="368.3333333333333"/>
      <point x="318.0" y="281.0"/>
    </contour>
    <contour>
      <point x="149.66666666666666" y="244.66666666666666" type="qcurve"/>
      <point x="149.66666666666666" y="235.33333333333334"/>
      <point x="162.33333333333334" y="221.0"/>
      <point x="171.33333333333334" y="221.0" type="qcurve"/>
      <point x="182.66666666666666" y="221.0"/>
      <point x="196.33333333333334" y="234.66666666666666"/>
      <point x="196.33333333333334" y="244.0" type="qcurve"/>
      <point x="196.33333333333334" y="255.33333333333334"/>
      <point x="183.0" y="269.3333333333333"/>
      <point x="172.33333333333334" y="269.3333333333333" type="qcurve"/>
      <point x="162.66666666666666" y="269.3333333333333"/>
      <point x="149.66666666666666" y="255.0"/>
    </contour>
  </outline>
</glyph>
